<svg width="100" height="100" viewBox="0 0 100 100" fill="none" xmlns="http://www.w3.org/2000/svg">
    <path fill="#499CE7" d="m67.085 20.438 13.973 52.147-52.147 13.973-13.973-52.147z"/>
    <path d="M53 22.5a2.5 2.5 0 0 0-5 0v8.333a2.5 2.5 0 0 0 5 0V22.5zM34.72 27.33a2.5 2.5 0 0 0-3.83 3.215l5.356 6.383a2.5 2.5 0 1 0 3.83-3.214l-5.356-6.383zM70.076 30.544a2.5 2.5 0 1 0-3.83-3.213l-5.356 6.383a2.5 2.5 0 1 0 3.83 3.214l5.356-6.383zM27.905 40a7.354 7.354 0 0 0-6.788 4.525l-1.32 3.167A3.75 3.75 0 0 1 16.337 50a2.5 2.5 0 0 0-2.5 2.5v21.667a2.5 2.5 0 0 0 2.5 2.5h18.798c6.695 0 12.29-5.095 12.914-11.76l.54-5.754C49.3 51.56 43.326 45 35.699 45a.982.982 0 0 1-.816-.437l-.86-1.288A7.354 7.354 0 0 0 27.906 40zM72.904 40a7.353 7.353 0 0 0-6.118 3.275l-.859 1.288a.982.982 0 0 1-.817.437c-7.626 0-13.6 6.56-12.888 14.153l.539 5.753a12.971 12.971 0 0 0 12.915 11.76h18.798a2.5 2.5 0 0 0 2.5-2.5V52.5a2.5 2.5 0 0 0-2.5-2.5 3.75 3.75 0 0 1-3.462-2.308l-1.32-3.167A7.353 7.353 0 0 0 72.904 40z" fill="#004A93"/>
</svg>
