<svg width="100" height="100" viewBox="0 0 100 100" fill="none" xmlns="http://www.w3.org/2000/svg">
    <path fill="#499CE7" d="m38.117 16.625 46.754 26.993-26.993 46.755-46.754-26.994z"/>
    <path fill-rule="evenodd" clip-rule="evenodd" d="M44.186 46.639c-1.528.98-2.022 2.03-2.022 2.805 0 .776.494 1.827 2.022 2.806 1.5.962 3.725 1.639 6.311 1.639s4.811-.677 6.311-1.639c1.529-.98 2.023-2.03 2.023-2.806 0-.775-.494-1.826-2.023-2.805-1.5-.962-3.725-1.639-6.31-1.639-2.587 0-4.811.677-6.312 1.639zm14.645 10.225c-2.324 1.299-5.244 2.025-8.334 2.025-3.089 0-6.009-.726-8.333-2.025v13.414c0 .775.494 1.826 2.022 2.806 1.5.961 3.725 1.638 6.311 1.638s4.811-.677 6.311-1.638c1.529-.98 2.023-2.031 2.023-2.806V56.864zm5-7.42c0-3.06-1.931-5.481-4.324-7.015-2.42-1.551-5.613-2.429-9.01-2.429-3.397 0-6.589.878-9.01 2.43-2.392 1.533-4.323 3.954-4.323 7.014v34.723c0 1.38 1.116 2.5 2.496 2.5h21.674c1.381 0 2.497-1.12 2.497-2.5V49.444z" fill="#004A93"/>
    <path d="M25.977 27.392c.491-.981 1.893-.981 2.384 0 2.515 5.027 3.057 5.568 8.085 8.08.982.491.982 1.892 0 2.383-5.028 2.512-5.57 3.054-8.085 8.08-.49.981-1.893.981-2.384 0-2.514-5.026-3.056-5.568-8.084-8.08-.982-.49-.982-1.892 0-2.383 5.027-2.512 5.57-3.053 8.084-8.08zM49.298 14.064c.49-.981 1.892-.981 2.384 0 2.514 5.027 3.056 5.568 8.084 8.08.982.491.982 1.892 0 2.383-5.028 2.512-5.57 3.053-8.084 8.08-.492.981-1.893.981-2.384 0-2.515-5.026-3.057-5.568-8.085-8.08-.982-.491-.982-1.892 0-2.383 5.028-2.512 5.57-3.053 8.085-8.08zM72.618 27.392c.491-.981 1.893-.981 2.384 0 2.514 5.027 3.057 5.568 8.084 8.08.983.491.983 1.892 0 2.383-5.027 2.512-5.57 3.054-8.084 8.08-.491.981-1.893.981-2.384 0-2.514-5.026-3.057-5.568-8.084-8.08-.983-.49-.983-1.892 0-2.383 5.027-2.512 5.57-3.053 8.084-8.08z" fill="#004A93"/>
</svg>
