<svg width="100" height="100" viewBox="0 0 100 100" fill="none" xmlns="http://www.w3.org/2000/svg">
    <path fill="#499CE7" d="M67.086 86.562 14.938 72.589l13.973-52.147L81.06 34.415z"/>
    <path d="M78.52 21.998c-3.97-3.975-10.412-3.977-14.385-.004L57.328 28.8c-5.783-3.59-12.112-5.52-18.022-5.687-6.32-.178-12.337 1.67-16.529 5.908-5.11 5.165-6.51 12.697-5.09 20.346 1.422 7.665 5.698 15.73 12.384 22.487C38.128 79.998 45.69 82.322 49.4 83.26a2.5 2.5 0 1 0 1.224-4.848c-3.168-.8-9.792-2.79-16.998-10.073-6.07-6.135-9.806-13.319-11.023-19.883-1.222-6.582.11-12.261 3.728-15.918 2.98-3.011 7.518-4.576 12.834-4.426 4.63.13 9.715 1.567 14.518 4.334L47.49 38.64a12.5 12.5 0 0 0-3.66 8.84v6.69a2.5 2.5 0 0 0 2.5 2.5h6.744A12.5 12.5 0 0 0 61.921 53l6.377-6.389c4.013 5.01 6.47 9.697 7.285 13.667.874 4.255-.129 7.545-3.073 9.926-1.893 1.53-4.058 1.55-6.591.492-2.61-1.09-5.197-3.191-7.224-5.17a2.5 2.5 0 1 0-3.493 3.578c2.185 2.133 5.312 4.753 8.79 6.206 3.555 1.484 7.85 1.863 11.661-1.218 4.67-3.775 6.002-9.103 4.828-14.82-1.059-5.152-4.14-10.71-8.63-16.22l6.672-6.684c3.963-3.97 3.962-10.4-.003-14.37z" fill="#004A93"/>
</svg>
