<svg width="80" height="80" viewBox="0 0 80 80" fill="none" xmlns="http://www.w3.org/2000/svg">
    <path d="M32 52c11.046 0 20-8.954 20-20 0-1.252-.115-2.477-.335-3.665A20.118 20.118 0 0 0 48 28c-11.046 0-20 8.954-20 20 0 1.252.115 2.477.335 3.665 1.188.22 2.413.335 3.665.335z" fill="#898989"/>
    <path fill-rule="evenodd" clip-rule="evenodd" d="M28.335 51.665C19.04 49.944 12 41.794 12 32c0-11.046 8.954-20 20-20 9.794 0 17.944 7.04 19.665 16.335A20.118 20.118 0 0 0 48 28c-11.046 0-20 8.954-20 20 0 1.252.115 2.477.335 3.665zM32 52c11.047 0 20-8.953 20-20 0-1.251-.114-2.476-.334-3.664C60.96 30.057 68 38.207 68 48c0 11.046-8.954 20-20 20-9.794 0-17.944-7.04-19.665-16.335 1.188.22 2.413.335 3.665.335z" fill="#000"/>
</svg>
