<svg width="80" height="80" viewBox="0 0 80 80" fill="none" xmlns="http://www.w3.org/2000/svg">
    <path d="M40 10c-16.569 0-30 13.431-30 30 0 16.569 13.431 30 30 30 14.865 0 27.205-10.811 29.585-25h-.215C67.15 53.626 59.32 60 50 60c-11.046 0-20-8.954-20-20s8.954-20 20-20c9.32 0 17.15 6.374 19.37 15h.215C67.205 20.811 54.865 10 40 10z" fill="#282828"/>
    <path d="M10 40c0-16.569 13.431-30 30-30 14.865 0 27.205 10.811 29.585 25H49.37C47.15 26.374 39.32 20 30 20c-11.046 0-20 8.954-20 20zM10 40c0 16.569 13.431 30 30 30 14.865 0 27.205-10.811 29.585-25H49.37C47.15 53.626 39.32 60 30 60c-11.046 0-20-8.954-20-20z" fill="#000"/>
</svg>
