<svg width="80" height="80" viewBox="0 0 80 80" fill="none" xmlns="http://www.w3.org/2000/svg">
    <path d="m26.135 13.39 7.02 26.202V10.786c.557-.13 1.12-.245 1.688-.343v29.152l7.897-29.47c.569.052 1.133.119 1.693.202l-7.96 29.707L52.294 12.63a29.83 29.83 0 0 1 1.523.737L37.936 40.874 60.61 18.201c.409.387.807.784 1.193 1.193L39.126 42.071l27.511-15.884c.26.5.506 1.007.737 1.523L39.977 43.529l29.7-7.958c.082.56.15 1.124.2 1.693L40.408 45.16h29.151c-.098.568-.213 1.13-.343 1.688H40.403l26.206 7.022c-.269.515-.553 1.022-.85 1.519l-25.786-6.91L61.51 60.915c-.408.419-.828.826-1.259 1.221l-21.12-12.193 15.981 15.98c-.505.296-1.02.577-1.544.843L37.937 51.133l10.242 17.74a29.8 29.8 0 0 1-1.702.428L36.474 51.975l4.823 18a30.483 30.483 0 0 1-1.741.023L34.843 52.41v17.15a29.902 29.902 0 0 1-1.687-.343V52.413L29 67.92a29.852 29.852 0 0 1-1.567-.67l4.092-15.273-7.682 13.306a30.1 30.1 0 0 1-1.398-.953l7.62-13.2-10.672 10.673a30.309 30.309 0 0 1-1.194-1.193l10.67-10.67-13.197 7.62c-.33-.458-.647-.924-.952-1.4l13.312-7.685-15.28 4.094a29.814 29.814 0 0 1-.67-1.567l15.507-4.156H10.785c-.13-.556-.245-1.119-.343-1.687h17.143l-17.582-4.71a30.294 30.294 0 0 1 .024-1.742l18.002 4.824L10.7 33.527a29.8 29.8 0 0 1 .428-1.701l17.747 10.246-15.639-15.639c.266-.523.547-1.038.843-1.544l15.987 15.988-12.198-21.128c.395-.432.802-.851 1.222-1.26L31.526 40.03l-6.91-25.789a30.021 30.021 0 0 1 1.519-.85z" fill="#000"/>
</svg>
