<svg width="80" height="80" viewBox="0 0 80 80" fill="none" xmlns="http://www.w3.org/2000/svg">
    <path d="M54.313 13.625c4.037 7.915 6.313 16.878 6.313 26.373 0 9.494-2.276 18.457-6.313 26.373C63.657 61.289 70 51.384 70 39.998c0-11.386-6.343-21.29-15.688-26.373zM40.822 13c-1.357-1.922-3.669-2.957-5.987-2.555C20.727 12.893 10 25.195 10 40.002c0 14.807 10.727 27.11 24.835 29.557 2.318.403 4.63-.633 5.986-2.555a46.661 46.661 0 0 0 8.554-27.002 46.66 46.66 0 0 0-8.553-27.001z" fill="#000"/>
</svg>
