<svg width="80" height="80" viewBox="0 0 80 80" fill="none" xmlns="http://www.w3.org/2000/svg">
    <path d="M30.152 33.795c7.856-3.757 14.004-10.133 17.533-18.102-2.277-2.391-5.237-4.1-8.425-5.124L37.552 10c-.114.228-.227.57-.227.797-2.733 7.742-8.312 14.004-15.826 17.533-5.237 2.505-9.108 7.059-10.93 12.524L10 42.562c.228.114.57.227.797.227a36.408 36.408 0 0 1 6.376 3.074c2.846-5.123 7.4-9.45 12.979-12.068zM63.166 34.25c-4.212 6.376-10.019 11.5-17.191 14.915-5.807 2.732-10.247 7.855-12.296 14.003l-.57 1.936c2.164 1.935 4.782 3.415 7.628 4.326l1.708.57c.114-.228.228-.57.228-.797 2.732-7.742 8.311-14.004 15.825-17.534 5.238-2.504 9.222-7.058 10.93-12.523l.57-1.708c-2.392-.683-4.669-1.822-6.832-3.188zM28.563 59.184c2.847-6.831 8.084-12.41 14.801-15.598 6.148-2.96 11.271-7.514 14.8-13.093-2.618-2.505-4.781-5.35-6.375-8.766-4.212 7.741-10.816 14.003-18.9 17.874-4.667 2.163-8.425 5.92-10.702 10.475 2.505 2.39 4.555 5.35 6.148 8.652l.228.456z" fill="#000"/>
</svg>
