<svg width="80" height="80" viewBox="0 0 80 80" fill="none" xmlns="http://www.w3.org/2000/svg">
    <path d="M28.52 12.284A30.003 30.003 0 0 1 40 10v15a14.997 14.997 0 0 0-13.858 9.26A14.997 14.997 0 0 0 25 40H10a30.003 30.003 0 0 1 18.52-27.716z" fill="#000"/>
    <path d="M10 40a30.003 30.003 0 0 0 18.52 27.716 30.003 30.003 0 0 0 32.693-6.503A30.004 30.004 0 0 0 70 40H55a14.997 14.997 0 0 1-9.26 13.858 14.997 14.997 0 0 1-19.598-8.118A14.997 14.997 0 0 1 25 40H10z" fill="#505050"/>
    <path d="M39.999 30.453A9.546 9.546 0 0 0 30.453 40h19.091a9.545 9.545 0 0 0-9.545-9.546z" fill="#282828"/>
    <path d="M39.999 49.547A9.546 9.546 0 0 1 30.453 40h19.091a9.545 9.545 0 0 1-9.545 9.546z" fill="#000"/>
</svg>
